<?xml version="1.0" encoding="UTF-8" standalone="no"?>
<svg width="477px" height="202px" viewBox="0 0 477 202" version="1.1" xmlns="http://www.w3.org/2000/svg" xmlns:xlink="http://www.w3.org/1999/xlink">
    <!-- Generator: Sketch 41.2 (35397) - http://www.bohemiancoding.com/sketch -->
    <title>Group 2</title>
    <desc>Created with Sketch.</desc>
    <defs></defs>
    <g id="Page-1" stroke="none" stroke-width="1" fill="none" fill-rule="evenodd">
        <g id="Group-2" transform="translate(-7.000000, 5.000000)">
            <text id="ROOTIFY" font-family="AvenirNext-Bold, Avenir Next" font-size="100" font-weight="bold" letter-spacing="5.71428585" fill="#00B685">
                <tspan x="0" y="100">ROOTIFY</tspan>
            </text>
            <circle id="Oval" stroke="#00B685" stroke-width="10" cx="148" cy="133" r="14"></circle>
            <path d="M447,178 C454.731986,178 461,171.731986 461,164 C461,156.268014 454.731986,150 447,150 C439.268014,150 433,156.268014 433,164 C433,171.731986 439.268014,178 447,178 Z M443.296333,72.5 L443.296333,143 L453.296333,143 L453.296333,72.5 L443.296333,72.5 Z" id="Combined-Shape" stroke="#00B685" stroke-width="10"></path>
            <circle id="Oval" stroke="#00B685" stroke-width="10" cx="330" cy="14" r="14"></circle>
            <path d="M16.2963334,80.5 L16.2963334,133" id="Line" stroke="#00B685" stroke-width="18.1700001" stroke-linecap="square"></path>
            <path d="M125,133.5 L17.2963334,133.5" id="Line" stroke="#00B685" stroke-width="18.1700001" stroke-linecap="square"></path>
            <path d="M93,174 L78.2963334,136.5" id="Line" stroke="#00B685" stroke-width="18.1700001" stroke-linecap="square"></path>
            <path d="M102,99 L78.2963334,136.5" id="Line" stroke="#00B685" stroke-width="18.1700001" stroke-linecap="square"></path>
            <path d="M186,96 L163,121" id="Line" stroke="#00B685" stroke-width="18.1700001" stroke-linecap="square"></path>
            <path d="M175,179 L102,179" id="Line" stroke="#00B685" stroke-width="18.1700001" stroke-linecap="square"></path>
            <path d="M216,179 L175,179" id="Line" stroke="#00B685" stroke-width="18.1700001" stroke-linecap="square"></path>
            <path d="M269,122 L224,175" id="Line" stroke="#00B685" stroke-width="18.1700001" stroke-linecap="square"></path>
            <circle id="Oval" stroke="#00B685" stroke-width="10" fill="#FFFFFF" cx="96" cy="178" r="14"></circle>
            <circle id="Oval" stroke="#00B685" stroke-width="10" fill="#FFFFFF" cx="175" cy="177" r="14"></circle>
            <circle id="Oval" stroke="#00B685" stroke-width="10" fill="#FFFFFF" cx="276" cy="104" r="14"></circle>
        </g>
    </g>
</svg>